<svg width="800" height="800" viewBox="0 0 800 800" fill="none" xmlns="http://www.w3.org/2000/svg">
<path d="M745.881 616.47C735.506 616.47 726.106 620.681 719.295 627.467L675.301 616.47C675.301 616.47 712.947 531.767 755.292 432.939C788.667 355.084 745.392 288.789 703.536 282.356C677.584 278.364 658.481 286.25 645.005 296.614C637.681 249.594 621.47 206.539 599.058 169.748C628.842 155.245 649.411 124.778 649.411 89.4141C649.409 40.025 609.397 0 560.008 0C521.47 0 488.731 24.4125 476.159 58.5813C451.647 48.0969 425.94 42.3594 400 42.3594C374.059 42.3594 348.353 48.0969 323.84 58.5813C311.281 24.4125 278.542 0 240.004 0C190.628 0 150.589 40.025 150.589 89.4156C150.589 124.766 171.17 155.247 200.954 169.75C178.529 206.541 162.331 249.583 154.995 296.616C141.533 286.252 122.415 278.366 96.4764 282.358C54.6201 288.791 11.3451 355.086 44.7076 432.941C87.0654 531.769 124.711 616.472 124.711 616.472L80.7045 627.469C73.892 620.683 64.4936 616.472 54.117 616.472C33.3279 616.472 16.4717 633.328 16.4717 654.117C16.4717 674.905 33.3279 691.762 54.117 691.762C69.0217 691.762 81.7779 683.034 87.8811 670.473L218.825 638.125V479.997L242.359 501.175V644.703L199 681.384C193.678 678.503 187.659 676.709 181.179 676.709C160.39 676.709 143.533 693.567 143.533 714.355C143.533 735.144 160.39 752 181.179 752C201.051 752 217.153 736.559 218.544 717.041L256.47 691.759V733.178C247.925 740.073 242.359 750.511 242.359 762.353C242.359 783.141 259.217 799.998 280.005 799.998C300.794 799.998 317.65 783.139 317.65 762.353C317.65 748.45 310.033 736.45 298.828 729.919V682.35L318.126 696.4C317.919 697.975 317.65 699.537 317.65 701.172C317.65 721.961 334.509 738.819 355.295 738.819C376.084 738.819 392.942 721.961 392.942 701.172C392.942 680.384 376.084 663.527 355.295 663.527C351.34 663.527 347.604 664.295 344.029 665.442L312.939 640.005V611.758H354.514H383.529H416.464H445.492H487.056V640.005L455.976 665.442C452.387 664.295 448.653 663.527 444.711 663.527C423.909 663.527 407.053 680.384 407.053 701.172C407.053 721.961 423.909 738.819 444.711 738.819C465.498 738.819 482.356 721.961 482.356 701.172C482.356 699.537 482.075 697.975 481.88 696.4L501.178 682.35V729.919C489.973 736.45 482.356 748.45 482.356 762.353C482.356 783.141 499.214 799.998 520.001 799.998C540.789 799.998 557.647 783.139 557.647 762.353C557.647 750.513 552.081 740.075 543.523 733.178V691.759L581.45 717.041C582.84 736.559 598.954 752 618.828 752C639.615 752 656.475 735.144 656.475 714.355C656.475 693.567 639.615 676.709 618.828 676.709C612.334 676.709 606.328 678.503 601.006 681.384L557.647 644.703V501.175L581.17 479.997V638.125L712.112 670.473C718.215 683.034 730.984 691.762 745.876 691.762C766.678 691.762 783.522 674.905 783.522 654.117C783.526 633.328 766.681 616.47 745.881 616.47ZM204.483 89.4156C204.483 69.8 220.389 53.9187 240.004 53.9187C259.633 53.9187 275.514 69.8 275.514 89.4156C275.514 109.033 259.633 124.95 240.004 124.95C220.389 124.95 204.483 109.031 204.483 89.4156ZM554.136 268.245H245.865C243.509 268.684 241.445 268.819 240.006 268.245H245.865C269.106 263.911 334.487 214.914 400 214.914C465.512 214.914 530.906 263.913 554.136 268.245H560.008C558.555 268.819 556.49 268.684 554.136 268.245ZM560.008 124.95C540.392 124.95 524.486 109.033 524.486 89.4156C524.486 69.8 540.392 53.9187 560.008 53.9187C579.636 53.9187 595.517 69.8 595.517 89.4156C595.517 109.031 579.636 124.95 560.008 124.95Z" fill="#CFDE91"/>
</svg>
