<svg width="800" height="800" viewBox="0 0 800 800" fill="none" xmlns="http://www.w3.org/2000/svg">
<g clip-path="url(#clip0_45_1467)">
<path d="M353.684 402.344L344.778 402.271C341.738 402.271 339.071 403.677 337.446 406.084L324.811 418.086C323.698 419.143 322.888 420.421 322.436 421.798L285.676 451.707C280.978 448.409 275.552 446.848 268.937 446.848C266.469 446.848 263.804 447.047 260.288 447.498C237.193 450.467 218.106 449.311 199.963 443.901C198.575 443.488 192.868 441.44 186.264 439.06C154.311 427.581 144.694 424.442 141.538 424.442C139.226 424.442 136.835 425.983 136.036 428.165L135.232 430.358C134.73 431.735 134.803 433.255 135.426 434.587C136.048 435.92 137.177 436.939 138.559 437.435L184.151 453.678C183.6 457.133 184.487 459.766 185.555 461.581C189.157 467.674 197.784 470.394 213.525 470.394C214.468 470.394 215.393 470.384 216.308 470.366C216.766 470.488 217.216 470.575 217.674 470.624C221.331 470.993 225.033 470.806 228.751 470.613C234.876 470.289 241.205 470.459 247.49 470.575C255.681 470.74 263.364 470.912 272.425 470.515C281.63 470.107 291.897 469.655 301.128 463.513C298.627 466.702 296.193 469.892 293.819 473.015C290.724 477.08 287.666 481.095 284.604 484.912C270.878 502.026 259.266 517.762 249.109 533.009C247.456 535.494 245.914 538.285 244.427 540.984C241.964 545.451 239.419 550.062 236.5 553.025C235.415 554.121 234.054 554.998 232.611 555.928C229.197 558.131 224.526 561.15 223.016 568.2C221.205 576.662 225.384 584.361 228.739 590.542C229.631 592.189 230.508 593.786 231.223 595.345C233.713 600.732 236.091 606.19 238.472 611.644C240.129 615.448 241.793 619.262 243.49 623.04L254.937 648.537C261.123 662.307 267.303 676.072 273.466 689.853C275.36 694.09 277.085 698.793 278.913 703.772C283.81 717.131 289.356 732.266 300.027 741.503C323.436 761.774 348.102 781.107 373.35 798.981C375.72 800.661 378.985 800.203 380.808 797.95C382.636 795.693 382.4 792.404 380.268 790.438C373.129 783.845 365.258 777.913 357.647 772.179C353.537 769.083 349.434 765.993 345.462 762.81C333.686 753.369 328.035 746.17 320.109 735.303C320.13 735.253 320.159 735.209 320.18 735.163C320.863 733.782 320.935 732.179 320.377 730.735C318.378 725.575 316.411 720.429 314.445 715.285C305.34 691.463 295.927 666.824 284.089 643.15C276.142 627.255 268.298 610.939 260.718 595.157C257.799 589.088 254.884 583.018 251.954 576.953C255.926 559.856 266.601 544.323 276.053 530.565C283.791 519.288 292.429 508.251 300.773 497.575L305.064 492.072C306.805 489.847 308.567 487.628 310.346 485.418C305.042 510.448 309.338 533.4 323.171 553.735C332.848 567.963 347.428 577.78 366.508 582.906C377.365 585.819 388.233 587.296 398.813 587.296L399.938 587.291L401.183 587.296C411.764 587.296 422.638 585.819 433.489 582.906C452.569 577.778 467.15 567.963 476.832 553.735C490.657 533.4 494.959 510.448 489.65 485.418C491.433 487.628 493.196 489.846 494.931 492.072L499.228 497.575C507.574 508.25 516.21 519.288 523.95 530.565C533.402 544.323 544.077 559.856 548.048 576.953C545.117 583.018 542.199 589.088 539.285 595.157C531.706 610.938 523.862 627.253 515.913 643.15C504.076 666.824 494.664 691.463 485.559 715.285C483.597 720.43 481.626 725.575 479.626 730.735C479.069 732.179 479.141 733.782 479.823 735.163C479.846 735.213 479.867 735.257 479.896 735.303C471.969 746.17 466.317 753.369 454.542 762.81C450.57 765.993 446.467 769.083 442.358 772.179C434.745 777.913 426.874 783.846 419.735 790.438C417.605 792.404 417.367 795.694 419.196 797.95C420.282 799.284 421.868 799.988 423.476 799.988C424.578 799.988 425.691 799.659 426.654 798.976C451.897 781.107 476.569 761.767 499.977 741.498C510.641 732.261 516.194 717.124 521.091 703.767C522.919 698.788 524.644 694.078 526.538 689.848C532.697 676.065 538.883 662.302 545.063 648.531L556.509 623.033C558.206 619.249 559.864 615.443 561.529 611.637C563.907 606.184 566.286 600.726 568.777 595.34C569.492 593.782 570.369 592.183 571.261 590.536C574.615 584.356 578.79 576.655 576.984 568.194C575.48 561.15 570.803 558.131 567.389 555.922C565.946 554.992 564.585 554.115 563.505 553.02C560.581 550.062 558.036 545.446 555.579 540.979C554.091 538.28 552.556 535.488 550.897 533.003C540.741 517.751 529.129 502.021 515.403 484.906C512.34 481.088 509.283 477.073 506.188 473.008C503.813 469.891 501.379 466.695 498.879 463.501C508.116 469.649 518.431 470.1 527.979 470.524C536.141 470.883 544.326 470.733 552.517 470.569C558.731 470.453 564.977 470.281 571.257 470.606C574.97 470.8 578.627 470.991 582.366 470.612C582.812 470.569 583.252 470.485 583.699 470.358C584.613 470.374 585.538 470.386 586.48 470.386C602.223 470.386 610.85 467.67 614.452 461.573C615.526 459.762 616.406 457.122 615.856 453.67L661.448 437.426C662.83 436.931 663.959 435.912 664.581 434.579C665.204 433.247 665.277 431.727 664.774 430.35L663.97 428.145C663.177 425.975 660.788 424.432 658.474 424.432C655.323 424.432 645.712 427.573 613.758 439.052C607.148 441.425 601.443 443.48 600.055 443.893C581.899 449.303 562.837 450.458 539.724 447.49C536.21 447.039 533.544 446.84 531.077 446.84C524.462 446.84 519.036 448.4 514.338 451.699L477.578 421.79C477.12 420.413 476.315 419.135 475.197 418.072L462.562 406.074C460.932 403.662 458.26 402.263 455.143 402.263L446.324 402.336V402.263C446.253 398.574 446.186 394.889 446.086 391.204L448.395 390.642C449.981 390.351 451.85 389.92 453.683 388.956L456.31 387.579C488.009 370.917 520.783 353.687 552.852 336.396C559.44 332.849 565.758 328.774 571.878 324.818C573.58 324.902 575.287 324.51 576.785 323.645C583.136 321.558 588.149 316.523 592.099 308.288C595.617 300.94 598.884 293.361 602.041 286.035C603.604 282.405 605.169 278.78 606.76 275.168C607.631 273.201 607.797 271.076 607.295 269.289C607.129 265.274 617.094 250.551 620.839 245.01C622.947 241.892 624.728 239.248 625.719 237.541C637.215 217.695 637.17 198.488 637.12 178.158L637.115 173.939C637.115 172.479 636.04 171.081 635.006 170.045C633.969 169.01 632.075 168.437 630.616 168.437C625.186 168.437 625.014 170.36 623.35 188.746C622.992 192.689 622.55 197.591 622.398 198.435C621.053 203.976 618.288 208.67 615.082 214.117L613.313 217.141C609.211 224.252 604.666 231.479 599.851 239.124C585.766 261.498 571.208 284.627 565.167 308.94C562.259 310.709 554.067 314.089 550.785 315.445C548.399 316.425 546.505 317.217 545.686 317.626L474.09 353.413C476.723 349.992 479.356 346.439 481.84 342.821C490.186 330.671 498.414 318.166 506.369 306.082C513.198 295.699 520.034 285.316 527.012 275.033C530.108 270.467 534.437 265.592 539.015 260.431C553.497 244.11 571.519 223.807 559.506 200.094C559.215 199.515 558.861 198.97 558.471 198.481C558.228 196.487 557.925 194.663 557.561 192.95C552.487 169.122 546.754 143.718 540.035 115.296C541.433 88.5526 527.212 68.2115 513.458 48.5414L512.818 47.6274C505.326 36.9189 497.658 26.3332 489.97 15.7124L480.27 2.29568C478.555 -0.0898429 475.273 -0.717613 472.812 0.884887C470.349 2.47119 469.562 5.71669 471.027 8.26017L480.286 24.2663C487.579 36.8527 494.861 49.4216 501.961 62.0958C503.448 64.75 505.083 67.4001 506.725 70.0503C507.755 71.7189 508.785 73.3822 509.783 75.0562C510.064 75.7501 510.471 76.4562 511.115 77.3594C514.156 82.7461 515.824 86.8772 516.525 90.7545C523.052 126.867 528.664 163.793 534.085 199.503C535.533 209.021 536.977 218.54 538.443 228.051C534.24 231.957 530.372 238.032 526.094 245.137C524.672 247.494 523.417 249.599 522.358 251.064L497.781 285.265C480.949 308.713 464.149 332.189 447.481 355.748C445.58 358.423 444.171 361.261 442.957 364.114C441.161 359.426 438.287 355.086 433.396 351.963C431.704 350.883 431.275 350.283 431.231 347.281C431.036 333.604 420.814 323.91 407.98 326.07C406.344 326.34 404.913 327.332 404.091 328.774C403.271 330.222 403.143 331.952 403.749 333.499L407.29 342.582L399.794 342.285L392.754 342.582L396.297 333.499C396.896 331.952 396.771 330.216 395.955 328.774C395.134 327.331 393.703 326.34 392.067 326.07C379.25 323.9 369.01 333.606 368.817 347.281C368.779 350.283 368.343 350.878 366.658 351.963C361.761 355.086 358.886 359.421 357.09 364.114C355.873 361.261 354.463 358.434 352.568 355.753C335.9 332.189 319.099 308.713 302.266 285.265L277.689 251.059C276.637 249.594 275.376 247.494 273.955 245.137C269.675 238.032 265.809 231.955 261.606 228.051C263.071 218.539 264.514 209.021 265.964 199.503C271.384 163.793 276.996 126.861 283.524 90.7545C284.223 86.8772 285.897 82.7461 288.651 77.8049C288.667 77.782 289.23 76.9611 289.247 76.9395C289.671 76.3455 290.012 75.7164 290.277 75.0454C291.268 73.37 292.299 71.7122 293.322 70.0489C294.964 67.4001 296.6 64.75 298.087 62.0945C305.187 49.4203 312.469 36.85 319.762 24.2649L329.02 8.25882C330.485 5.71399 329.698 2.46984 327.235 0.883537C324.773 -0.708163 321.496 -0.0857929 319.778 2.29433L310.078 15.7111C302.388 26.3305 294.716 36.9175 287.23 47.6261L286.59 48.54C272.83 68.2101 258.609 88.5512 260.013 115.294C253.292 143.711 247.559 169.114 242.487 192.949C242.123 194.662 241.82 196.486 241.578 198.48C241.182 198.975 240.834 199.515 240.537 200.093C228.524 223.805 246.546 244.109 261.028 260.429C265.611 265.596 269.934 270.465 273.03 275.031C280.008 285.315 286.845 295.698 293.675 306.081C301.629 318.166 309.858 330.669 318.202 342.82C320.686 346.439 323.319 349.991 325.952 353.412L254.356 317.625C253.541 317.223 251.641 316.424 249.261 315.443C245.978 314.088 237.787 310.711 234.879 308.939C228.836 284.626 214.279 261.502 200.194 239.123C195.38 231.472 190.83 224.251 186.731 217.14L184.963 214.116C181.756 208.674 178.998 203.976 177.675 198.55C177.494 197.597 177.053 192.695 176.695 188.751C175.032 170.365 174.86 168.443 169.43 168.443L168.439 168.437C166.979 168.437 165.575 169.015 164.545 170.051C163.514 171.086 162.931 172.485 162.931 173.945L162.926 178.164C162.876 198.496 162.827 217.708 174.328 237.549C175.319 239.262 177.093 241.9 179.209 245.017C182.96 250.558 192.918 265.281 192.809 269.033C192.253 271.082 192.423 273.209 193.294 275.174C194.891 278.782 196.45 282.407 198.015 286.042C201.171 293.369 204.437 300.948 207.957 308.29C211.9 316.53 216.918 321.564 223.27 323.652C224.762 324.517 226.443 324.907 228.177 324.825C234.292 328.779 240.614 332.856 247.197 336.403C279.266 353.693 312.039 370.922 343.738 387.584L346.366 388.967C348.194 389.925 350.062 390.355 351.368 390.585L353.962 391.208C353.862 394.888 353.796 398.572 353.725 402.262V402.34H353.684V402.344Z" fill="#CFDE91"/>
</g>
<defs>
<clipPath id="clip0_45_1467">
<rect width="800" height="800" fill="white"/>
</clipPath>
</defs>
</svg>
