<svg width="800" height="800" viewBox="0 0 800 800" fill="none" xmlns="http://www.w3.org/2000/svg">
<g clip-path="url(#clip0_45_1204)">
<path d="M429.837 463.161C481.653 411.344 475.184 322.534 409.122 280.106L246.761 442.467C288.906 508.077 377.598 515.402 429.837 463.161Z" fill="#CFDE91"/>
<path d="M773.519 208.345H760.969C772.325 168.988 760.273 124.527 725.92 96.7797C686.841 65.2359 630.553 65.4922 591.845 97.9625L142.4 163.327C127.927 165.431 117.902 178.869 120.006 193.342C122.111 207.814 135.545 217.839 150.022 215.736L457.892 170.963L250.397 281.978C237.5 288.878 232.641 304.925 239.539 317.82C246.442 330.72 262.489 335.575 275.381 328.678L458.55 230.678L447.055 242.173C533.188 305.292 540.167 427.731 467.284 500.614C393.788 574.111 271.424 565.897 208.813 480.416C199.147 490.083 15.1876 674.042 7.87194 681.359C-11.4093 700.639 7.62976 732.816 33.6641 725.605L260.081 662.887C362.689 694.233 476.834 668.2 555.844 589.192C621.733 523.305 650.25 433.642 640.711 347.23L726.525 261.314H773.517C788.142 261.314 799.998 249.458 799.998 234.833C800 220.205 788.142 208.345 773.519 208.345ZM681.153 199.431C665.209 199.417 652.297 186.481 652.311 170.539C652.325 154.597 665.261 141.683 681.203 141.697C697.147 141.711 710.059 154.647 710.045 170.589C710.031 186.531 697.095 199.445 681.153 199.431Z" fill="#CFDE91"/>
</g>
<defs>
<clipPath id="clip0_45_1204">
<rect width="800" height="800" fill="white"/>
</clipPath>
</defs>
</svg>
