<svg width="800" height="800" viewBox="0 0 800 800" fill="none" xmlns="http://www.w3.org/2000/svg">
<path d="M593.087 504.484C596.147 499.672 598.794 494.728 600.925 489.653L695.309 473.094L793.75 522.313L695.309 423.872L606.334 441.669C605.478 437 604.216 432.41 602.591 427.903L676.856 399.266L734.703 321.284H734.637C759.128 288.134 735.562 224.65 680.441 177.256C644.941 146.709 604.703 130.128 572.866 130.038L646.081 276.619L521.647 213.588C530.844 240.475 551.025 269.606 579.819 294.338C602.947 314.231 628.05 328.197 651.55 335.556L633.791 374.659L584.987 397.538C561.359 368.691 521.016 346.084 471.894 334.759C475.006 330.931 476.875 326.053 476.875 320.738C476.875 308.447 466.909 298.481 454.619 298.481C442.328 298.481 432.363 308.447 432.363 320.738C432.363 323.475 432.881 326.081 433.784 328.503C422.791 327.378 411.519 326.769 400.016 326.769C388.513 326.769 377.241 327.378 366.247 328.503C367.15 326.081 367.669 323.472 367.669 320.738C367.669 308.447 357.703 298.481 345.412 298.481C333.122 298.481 323.156 308.447 323.156 320.738C323.156 326.056 325.025 330.931 328.137 334.759C279.012 346.084 238.669 368.694 215.037 397.544L166.222 374.663L148.469 335.578C171.962 328.222 197.056 314.269 220.172 294.394C248.966 269.659 269.147 240.497 278.375 213.581L153.909 276.613L227.094 130.059C195.222 130.184 155.047 146.734 119.516 177.313C64.3937 224.7 40.8375 288.225 65.3594 321.359L123.147 399.263L197.425 427.906C195.797 432.413 194.538 437 193.681 441.672L104.691 423.875L6.25 522.313L104.691 473.094L199.094 489.656C201.225 494.731 203.872 499.672 206.928 504.484L104.691 522.316L55.4719 602.297L138.647 549.444L236.984 540.928L250.266 555.956L209.284 565.381L153.909 620.75L215.319 669.875C215.325 669.885 215.334 669.897 215.344 669.906L215.347 669.897L215.434 669.969L215.394 669.803C218.347 664.497 220.05 658.4 220.05 651.897C220.05 638.903 213.322 627.5 203.175 620.922L203.131 620.75L230.819 596.141H285.781L292.828 604.116C297.897 609.853 305.184 613.138 312.844 613.138H486.109C493.766 613.138 501.053 609.853 506.122 604.116L513.169 596.141H569.191L596.878 620.75L596.834 620.922C586.687 627.5 579.959 638.903 579.959 651.897C579.959 658.4 581.662 664.497 584.616 669.803L584.575 669.969L584.662 669.897L584.666 669.906C584.675 669.897 584.681 669.885 584.691 669.875L646.097 620.75L590.725 565.378L548.866 555.75L562.044 540.841L661.363 549.441L744.537 602.294L695.319 522.313L593.087 504.484Z" fill="#CFDE91"/>
</svg>
