<svg width="800" height="800" viewBox="0 0 800 800" fill="none" xmlns="http://www.w3.org/2000/svg">
<path d="M60.1998 416.37L0.556021 262.294C-0.762729 258.852 0.335747 254.969 3.242 252.748C6.17168 250.502 10.1998 250.478 13.1545 252.65L167.989 366.859C201.314 362.928 237.35 283.314 395.992 243.812L349.629 237.197C342.233 236.147 335.737 231.825 331.881 225.405C328.048 219.008 327.315 211.22 329.854 204.212L353.17 140.102C356.026 132.264 362.619 126.381 370.723 124.452C378.828 122.522 387.35 124.794 393.428 130.506L499.556 230.409C671.259 234.167 799.995 372.375 799.995 416.37C794.161 453.259 723.603 538.05 616.792 579.261C605.634 563.684 596.626 548.645 589.423 534.314C568.403 492.395 562.495 456.384 562.495 431.605C562.495 421.619 563.472 413.466 564.717 407.752C566.719 398.303 560.712 389.027 551.265 387.023C541.817 384.997 532.54 391.028 530.514 400.452C528.708 408.972 527.559 419.372 527.559 431.605C527.559 461.83 534.712 503.188 558.198 549.989C564.79 563.148 572.75 576.747 582.148 590.639C545.429 600.648 505.269 605.166 462.642 601.113L431.001 662.758C427.803 669.008 422.114 673.598 415.328 675.405C408.54 677.188 401.314 676.039 395.406 672.181L371.261 656.386C364.595 652.041 360.47 644.789 360.054 636.88C359.689 628.969 363.083 621.328 369.259 616.347L401.608 590.297C238.18 551.331 201.681 469.863 167.989 465.883L13.1545 580.092C10.1998 582.266 6.17168 582.241 3.242 580.019C0.337309 577.797 -0.762729 573.891 0.556021 570.473L60.1998 416.37ZM680.586 428.039C695.064 428.039 706.806 416.272 706.806 401.819C706.806 387.341 695.062 375.598 680.586 375.598C666.109 375.598 654.365 387.342 654.365 401.819C654.365 416.272 666.109 428.039 680.586 428.039Z" fill="#CFDE91"/>
</svg>
