<svg width="800" height="800" viewBox="0 0 800 800" fill="none" xmlns="http://www.w3.org/2000/svg">
<g clip-path="url(#clip0_45_1455)">
<path d="M475.001 445.311C450.001 445.311 450.001 430.467 450.001 407.811H350.002C350.002 430.467 350.002 445.311 325.002 445.311L400.002 495.311L475.001 445.311Z" fill="#CFDE91"/>
<path d="M472.917 343.749C472.917 343.749 487.5 363.748 487.5 388.748C487.5 413.748 468.662 418.748 460.156 418.748C451.65 418.748 460.156 418.748 400 418.748C339.844 418.748 348.35 418.748 339.844 418.748C331.338 418.748 312.5 413.748 312.5 388.748C312.5 363.748 327.083 343.749 327.083 343.749" fill="#CFDE91"/>
<path d="M475.001 449.998H450.001C425.002 449.998 418.752 487.498 400.002 487.498C381.252 487.498 375.002 449.998 350.002 449.998H325.002C318.099 449.998 312.502 455.595 312.502 462.498V531.248C312.502 610.64 351.677 674.997 400.002 674.997C448.326 674.997 487.501 610.64 487.501 531.248V462.498C487.501 455.595 481.904 449.998 475.001 449.998Z" fill="#CFDE91"/>
<path d="M400.002 349.999C423.96 349.999 474.28 348.741 500.002 324.999C506.772 318.749 489.638 302.103 500.002 274.999C506.772 257.291 500.002 249.999 500.002 249.999C500.002 249.999 474.359 259.213 437.502 249.999C422.919 246.354 412.502 237.499 400.002 237.499" fill="#CFDE91"/>
<path d="M400.002 349.999C376.044 349.999 325.724 348.741 300.002 324.999C293.232 318.749 310.366 302.103 300.002 274.999C293.232 257.291 300.002 249.999 300.002 249.999C300.002 249.999 325.644 259.213 362.502 249.999C377.085 246.354 387.502 237.499 400.002 237.499" fill="#CFDE91"/>
<path d="M375.002 237.499C353.127 221.874 322.858 191.096 325.002 137.5C327.346 78.906 375.002 12.5 375.002 12.5C361.721 25.7812 244.534 122.656 300.002 249.999" fill="#CFDE91"/>
<path d="M422.686 237.499C444.561 221.874 474.831 191.096 472.686 137.5C470.342 78.906 422.686 12.5 422.686 12.5C435.967 25.7812 553.154 122.656 497.686 249.999" fill="#CFDE91"/>
<path d="M699.874 510.731C698.897 503.895 692.563 499.147 685.732 500.123L610.604 510.856C607.196 511.34 600.74 509.582 598.047 507.428L555.069 473.047C548.291 467.623 536.827 461.947 528.406 459.84L497.742 452.175C493.97 443.901 485.831 438.051 476.281 437.562C475.859 437.52 475.432 437.498 475.001 437.498C465.414 437.498 463.132 437.483 462.632 423.209C474.982 419.275 487.501 408.495 487.501 387.499H512.501C532.457 387.499 550.66 372.078 553.94 352.394L570.719 251.713C572.374 241.787 581.738 228.032 590.368 222.855L631.43 198.216C637.35 194.665 639.269 186.985 635.718 181.065C632.166 175.146 624.488 173.226 618.568 176.777L577.505 201.416C562.463 210.441 548.945 230.298 546.06 247.602L529.281 348.283C528.018 355.856 520.177 362.499 512.501 362.499H482.873C481.374 358.371 479.696 354.738 478.131 351.739C489.426 347.642 500.015 341.996 508.479 334.185C516.881 326.428 513.985 316.218 511.873 308.761C509.598 300.736 507.02 291.641 511.676 279.463C517.865 263.279 515.393 252.543 512.551 246.649C532.345 195.27 528.704 142.979 501.649 91.0888C479.401 48.4124 447.204 18.3484 435.084 7.03129C433.536 5.58598 432.323 4.45942 431.523 3.65943C426.923 -0.938993 419.564 -1.23743 414.601 2.9688C409.639 7.17816 408.737 14.4922 412.525 19.7828C412.979 20.4172 458.031 83.9185 460.193 137.998C462.037 184.079 436.862 212.01 415.418 227.327C415.25 227.448 415.097 227.582 414.936 227.71C410.32 226.121 405.429 224.999 399.998 224.999C393.925 224.999 388.52 226.39 383.43 228.284C383.062 227.948 382.678 227.624 382.262 227.329C360.819 212.012 335.644 184.081 337.488 138C339.65 83.9201 384.701 20.4187 385.153 19.7891C388.948 14.5016 388.05 7.18598 383.087 2.97193C378.125 -1.24212 370.761 -0.938993 366.159 3.66099C365.359 4.46255 364.147 5.58754 362.598 7.03285C350.478 18.35 318.283 48.4139 296.033 91.0903C268.472 143.953 265.197 197.231 286.256 249.535C284.071 255.788 283.033 265.635 288.321 279.463C292.977 291.641 290.399 300.736 288.125 308.761C286.011 316.216 283.117 326.428 291.519 334.185C299.983 341.996 310.57 347.642 321.867 351.739C320.303 354.738 318.624 358.371 317.125 362.499H287.497C279.821 362.499 271.978 355.856 270.717 348.283L253.938 247.602C251.053 230.299 237.535 210.443 222.493 201.416L181.43 176.777C175.508 173.228 167.832 175.143 164.28 181.065C160.729 186.985 162.648 194.663 168.568 198.216L209.632 222.855C218.26 228.032 227.625 241.787 229.28 251.713L246.06 352.394C249.341 372.078 267.542 387.499 287.499 387.499H312.499C312.499 408.495 325.017 419.277 337.367 423.209C336.867 437.483 334.586 437.498 324.999 437.498C324.567 437.498 324.139 437.52 323.719 437.562C314.169 438.051 306.028 443.901 302.258 452.175L271.594 459.84C263.172 461.947 251.708 467.623 244.93 473.047L201.952 507.428C199.26 509.582 192.808 511.354 189.393 510.854L114.266 500.123C107.435 499.145 101.101 503.895 100.124 510.731C99.1478 517.564 103.896 523.896 110.731 524.873L185.854 535.603C187.382 535.823 188.976 535.928 190.612 535.928C199.976 535.928 210.668 532.468 217.566 526.95L260.544 492.568C264.538 489.373 272.694 485.333 277.655 484.092L299.995 478.508V520.659L285.271 523.114C278.624 524.221 272.713 528.032 269.053 533.571C265.394 539.11 264.205 546.042 265.792 552.59C276.069 594.977 286.911 642.666 287.486 650.004C286.825 659.374 272.002 737.571 262.727 785.103C261.405 791.88 265.825 798.444 272.602 799.766C273.411 799.925 274.216 800 275.01 800C280.869 799.999 286.1 795.859 287.264 789.891C294.85 751.01 312.495 659.549 312.495 649.998C312.495 640.294 297.164 575.912 290.311 547.618L300.43 545.932C302.485 581.085 311.892 613.841 327.447 639.394C346.334 670.413 372.1 687.497 400.001 687.497C427.903 687.497 453.668 670.413 472.551 639.394C488.106 613.841 497.513 581.085 499.568 545.932L509.687 547.618C502.834 575.91 487.503 640.294 487.503 649.998C487.503 659.549 505.148 751.01 512.734 789.891C513.898 795.858 519.129 800 524.988 800C525.782 800 526.588 799.923 527.396 799.766C534.171 798.444 538.593 791.88 537.271 785.103C527.996 737.571 513.174 659.374 512.512 650.004C513.087 642.669 523.929 594.979 534.206 552.59C535.793 546.043 534.604 539.11 530.945 533.571C527.285 528.032 521.374 524.221 514.727 523.112L500.003 520.659V478.508L522.343 484.092C527.306 485.333 535.462 489.373 539.455 492.568L582.433 526.95C589.333 532.47 600.024 535.928 609.388 535.928C611.022 535.928 612.618 535.823 614.144 535.604L689.271 524.873C696.102 523.896 700.85 517.564 699.874 510.731ZM485.176 137.001C484.743 126.17 482.91 115.171 480.17 104.37C507.771 158.401 502.14 205.327 488.301 240.009C479.251 241.643 462.609 243.13 441.903 238.199C464.885 218.02 487.126 185.745 485.176 137.001ZM317.517 104.37C314.777 115.171 312.944 126.17 312.511 137.001C310.547 186.093 333.119 218.477 356.277 238.626C334.35 243.512 317.202 241.221 309.188 239.512C295.495 204.881 290.049 158.145 317.517 104.37ZM311.425 318.308C311.666 317.405 311.944 316.422 312.183 315.58C314.845 306.188 319.3 290.471 311.678 270.535C310.877 268.44 310.35 266.627 310.016 265.076C322.372 267.004 341.948 268.026 365.534 262.126C372.767 260.319 378.903 257.529 384.317 255.066C390.298 252.348 395.464 249.999 400.003 249.999C404.542 249.999 409.708 252.348 415.689 255.066C421.103 257.527 427.239 260.318 434.471 262.126C458.062 268.026 477.635 267.005 489.99 265.076C489.656 266.627 489.128 268.44 488.328 270.535C480.706 290.471 485.162 306.188 487.823 315.58C488.062 316.422 488.34 317.405 488.579 318.308C472.217 331.046 442.456 337.499 400.001 337.499C357.547 337.499 327.786 331.046 311.425 318.308ZM348.439 399.999C343.45 399.999 337.502 397.83 337.502 387.499C337.502 373.644 344.747 361.644 346.894 358.392C368.95 362.492 389.897 362.499 400.001 362.499C410.106 362.499 431.054 362.492 453.111 358.392C455.262 361.642 462.501 373.619 462.501 387.499C462.501 397.83 456.553 399.999 451.564 399.999H348.439ZM439.614 439.012C426.192 443.067 417.676 454.497 411.125 463.303C407.87 467.678 402.423 474.998 400.001 474.998C397.58 474.998 392.133 467.676 388.878 463.303C382.326 454.497 373.811 443.067 360.389 439.012C361.562 434.683 362.087 430.009 362.316 424.998H437.686C437.915 430.009 438.44 434.681 439.614 439.012ZM475.001 531.248C475.001 594.957 447.453 649.777 412.501 660.548V537.498C412.501 530.595 406.904 524.998 400.001 524.998C393.098 524.998 387.501 530.595 387.501 537.498V660.548C352.55 649.777 325.002 594.957 325.002 531.248V462.498H350.002C356.641 462.498 361.539 468.44 368.82 478.225C376.037 487.925 385.02 499.998 400.001 499.998C414.983 499.998 423.965 487.925 431.182 478.225C438.464 468.439 443.362 462.498 450.001 462.498H475.001V531.248Z" fill="#CFDE91"/>
</g>
<defs>
<clipPath id="clip0_45_1455">
<rect width="800" height="800" fill="white"/>
</clipPath>
</defs>
</svg>
