<svg width="800" height="800" viewBox="0 0 800 800" fill="none" xmlns="http://www.w3.org/2000/svg">
<path d="M413.972 355.555L622.222 429.93V733.333C622.222 739.227 619.881 744.879 615.713 749.047C611.546 753.214 605.894 755.555 600 755.555H511.111C505.217 755.555 499.565 753.214 495.397 749.047C491.23 744.879 488.889 739.227 488.889 733.333V577.778H266.667V733.333C266.667 739.227 264.325 744.879 260.158 749.047C255.99 753.214 250.338 755.555 244.444 755.555H155.555C149.662 755.555 144.009 753.214 139.842 749.047C135.674 744.879 133.333 739.227 133.333 733.333V436.236C81.7221 417.833 44.4443 368.972 44.4443 311.111C44.4443 299.324 49.1269 288.019 57.4618 279.684C65.7968 271.349 77.1014 266.667 88.8888 266.667C100.676 266.667 111.981 271.349 120.316 279.684C128.651 288.019 133.333 299.324 133.333 311.111C133.355 322.892 138.045 334.183 146.375 342.514C154.705 350.844 165.997 355.533 177.778 355.555H413.972ZM755.555 200V244.444C755.555 268.019 746.19 290.628 729.52 307.298C712.851 323.968 690.241 333.333 666.667 333.333H622.222V382.75L444.444 319.264V111.111C444.444 91.3194 468.361 81.4027 482.375 95.4027L520.264 133.333H594.75C609.903 133.333 627.736 144.333 634.5 157.903L644.444 177.778H733.333C739.227 177.778 744.879 180.119 749.047 184.286C753.214 188.454 755.555 194.106 755.555 200ZM600 200C600 195.605 598.697 191.308 596.255 187.654C593.813 183.999 590.342 181.151 586.282 179.469C582.221 177.787 577.753 177.347 573.442 178.205C569.132 179.062 565.172 181.179 562.064 184.286C558.956 187.394 556.84 191.354 555.982 195.665C555.125 199.975 555.565 204.443 557.247 208.504C558.929 212.565 561.777 216.035 565.432 218.477C569.086 220.919 573.383 222.222 577.778 222.222C583.671 222.222 589.324 219.881 593.491 215.713C597.659 211.546 600 205.894 600 200Z" fill="#CFDE91"/>
</svg>
