<svg width="800" height="800" viewBox="0 0 800 800" fill="none" xmlns="http://www.w3.org/2000/svg">
<path d="M234.766 31.203C55.8908 30.3061 16.0595 320.187 266.895 362.647C220.802 363.481 180.361 375.319 123.536 403.225C-29.9998 478.614 1.03923 723.384 157.616 696.875C211.491 687.753 237.631 618.242 158.983 594.726C184.788 640.992 115.283 668.32 93.5049 597.755C75.908 540.739 126.544 480.701 175.486 464.942C223.142 449.598 261.805 447.973 304.345 455.811C247.181 509.322 215.991 581.537 238.133 648.973C307.699 860.841 538.361 777.911 492.577 638.473C476.411 589.245 427.877 565.809 386.327 622.606C441.27 608.772 465.155 683.153 414.745 699.703C373.566 713.226 320.664 678.567 311.57 635.105C299.352 576.683 342.461 514.487 397.164 486.276C431.814 541.542 457.808 562.339 527.196 599.067C661.325 670.061 859.941 541.973 752.049 426.364C716.696 388.483 666.777 379.458 646.58 446.87C693.749 415.48 741.499 488.745 699.51 521.187C665.213 547.687 603.411 551.086 564.452 529.781C516.331 503.466 480.405 470.722 454.783 425.825C543.955 447.216 641.633 424.161 678.221 354.978C749.658 219.9 667.211 116.748 585.838 115.33C553.997 114.773 522.316 129.762 500.096 164.548C472.205 208.214 484.76 260.694 555.028 256.93C509.544 223.136 552.06 157.519 596.774 186.081C633.302 209.412 631.921 267.144 612.008 306.831C588.313 354.065 517.363 386.109 463.474 345.358C458.774 336.436 454.781 327.103 451.317 317.478C465.364 307.337 474.558 290.872 474.558 272.361C474.558 244.592 453.852 221.361 427.144 217.333C411.889 143.686 390.675 72.5702 294.575 41.4046C273.263 34.4921 253.267 31.2921 234.763 31.2014L234.766 31.203ZM418.897 245.898C433.683 245.898 445.361 257.576 445.361 272.364C445.361 287.15 433.685 298.828 418.899 298.828C404.113 298.828 392.483 287.15 392.483 272.362C392.483 257.576 404.113 245.898 418.899 245.898H418.897ZM316.7 262.305C331.486 262.305 343.164 273.983 343.164 288.77C343.164 303.556 331.486 315.234 316.699 315.234C301.913 315.234 290.235 303.556 290.235 288.769C290.235 273.983 301.913 262.305 316.7 262.305Z" fill="#CFDE91"/>
</svg>
