<svg width="800" height="800" viewBox="0 0 800 800" fill="none" xmlns="http://www.w3.org/2000/svg">
<path d="M400 100L447.673 277.06C453.49 298.667 456.4 309.47 462.14 318.302C467.22 326.116 473.883 332.779 481.7 337.86C490.53 343.6 501.333 346.51 522.94 352.327L700 400L522.94 447.673C501.333 453.49 490.53 456.4 481.7 462.14C473.883 467.22 467.22 473.883 462.14 481.7C456.4 490.53 453.49 501.333 447.673 522.94L400 700L352.327 522.94C346.51 501.333 343.6 490.53 337.86 481.7C332.779 473.883 326.116 467.22 318.302 462.14C309.47 456.4 298.667 453.49 277.06 447.673L100 400L277.06 352.327C298.667 346.51 309.47 343.6 318.302 337.86C326.116 332.779 332.779 326.116 337.86 318.302C343.6 309.47 346.51 298.667 352.327 277.06L400 100Z" fill="#CFDE91" stroke="#CFDE91" stroke-width="66.6667" stroke-linecap="round" stroke-linejoin="round"/>
</svg>
