<svg width="800" height="800" viewBox="0 0 800 800" fill="none" xmlns="http://www.w3.org/2000/svg">
<path d="M348 152.089C358.778 106.978 356.533 82.3333 335.711 70.3778C314.911 58.4444 343.2 11.1333 379.644 52.7555C416.111 94.3778 411.378 133.156 394.356 160.6C377.311 188.022 342.444 175.267 348 152.089ZM337.333 217.667C316.978 259.378 299.578 276.956 275.911 272.933C252.267 268.933 244.022 323.422 298.644 314.467C353.244 305.511 374.222 272.556 378.533 240.556C382.822 208.556 347.8 196.244 337.333 217.667ZM589.244 356.8C543.2 326.2 469.644 388.578 462.6 407.467C455.556 426.356 500.844 484.378 488.067 517.244C475.244 550.067 513.444 556.533 530.733 528.156C548.022 499.756 537.489 447.889 534.2 435.511C530.911 423.133 582.844 408.422 615.778 434.689C648.689 460.911 608.6 369.689 589.244 356.8ZM612.978 338.622C578.622 295.311 634.644 216.8 652.844 208.178C671.089 199.578 710 217.111 741.667 201.622C773.311 186.133 780.444 220.6 756.111 243.267C728.844 268.644 706.311 272.933 686.8 277.178C674.289 279.889 686.089 322.356 686.6 365.4C687.111 405.378 627.422 356.844 612.978 338.622Z" fill="#CFDE91"/>
<path d="M340.422 70.3779C340.422 74.645 338.727 78.7372 335.71 81.7545C332.693 84.7717 328.6 86.4668 324.333 86.4668C320.066 86.4668 315.974 84.7717 312.957 81.7545C309.94 78.7372 308.244 74.645 308.244 70.3779C308.244 66.1109 309.94 62.0186 312.957 59.0014C315.974 55.9841 320.066 54.289 324.333 54.289C328.6 54.289 332.693 55.9841 335.71 59.0014C338.727 62.0186 340.422 66.1109 340.422 70.3779ZM273.778 268.089C273.778 272.359 272.082 276.454 269.062 279.473C266.043 282.493 261.948 284.189 257.678 284.189C253.408 284.189 249.313 282.493 246.293 279.473C243.274 276.454 241.578 272.359 241.578 268.089C241.578 263.819 243.274 259.724 246.293 256.705C249.313 253.685 253.408 251.989 257.678 251.989C261.948 251.989 266.043 253.685 269.062 256.705C272.082 259.724 273.778 263.819 273.778 268.089ZM267.156 305.356C267.156 307.469 266.739 309.561 265.931 311.513C265.122 313.465 263.937 315.238 262.443 316.732C260.949 318.226 259.176 319.411 257.224 320.22C255.272 321.028 253.179 321.445 251.067 321.445C248.954 321.445 246.862 321.028 244.91 320.22C242.958 319.411 241.184 318.226 239.69 316.732C238.196 315.238 237.011 313.465 236.202 311.513C235.394 309.561 234.978 307.469 234.978 305.356C234.978 301.089 236.673 296.996 239.69 293.979C242.707 290.962 246.8 289.267 251.067 289.267C255.334 289.267 259.426 290.962 262.443 293.979C265.46 296.996 267.156 301.089 267.156 305.356ZM299.311 321.445C299.311 325.715 297.615 329.81 294.596 332.829C291.576 335.848 287.481 337.545 283.211 337.545C278.941 337.545 274.846 335.848 271.827 332.829C268.807 329.81 267.111 325.715 267.111 321.445C267.111 317.175 268.807 313.079 271.827 310.06C274.846 307.041 278.941 305.345 283.211 305.345C287.481 305.345 291.576 307.041 294.596 310.06C297.615 313.079 299.311 317.175 299.311 321.445ZM489.867 518.067C490.748 520.107 491.197 522.308 491.187 524.53C491.176 526.753 490.706 528.949 489.806 530.981C488.905 533.013 487.594 534.836 485.955 536.337C484.316 537.838 482.384 538.983 480.281 539.701C478.177 540.419 475.948 540.694 473.734 540.509C471.519 540.324 469.366 539.683 467.412 538.625C465.457 537.568 463.742 536.118 462.374 534.366C461.007 532.614 460.017 530.598 459.467 528.445C458.463 524.517 458.976 520.356 460.904 516.79C462.833 513.224 466.034 510.516 469.871 509.207C473.707 507.897 477.896 508.082 481.602 509.724C485.309 511.366 488.26 514.345 489.867 518.067ZM507.022 546.245C508.112 550.203 507.65 554.429 505.729 558.058C503.808 561.688 500.574 564.447 496.687 565.771C492.801 567.096 488.555 566.887 484.817 565.187C481.08 563.486 478.133 560.423 476.578 556.622C475.202 552.585 475.486 548.167 477.367 544.339C479.249 540.511 482.574 537.587 486.611 536.211C488.61 535.53 490.724 535.249 492.831 535.384C494.939 535.52 496.999 536.069 498.895 537.001C502.722 538.882 505.646 542.207 507.022 546.245ZM543.178 540.911C543.908 542.922 544.23 545.057 544.125 547.194C544.021 549.33 543.491 551.424 542.567 553.353C541.643 555.283 540.344 557.008 538.745 558.429C537.147 559.85 535.281 560.939 533.257 561.63C531.233 562.321 529.091 562.602 526.957 562.456C524.823 562.31 522.74 561.74 520.829 560.779C518.918 559.818 517.218 558.486 515.828 556.861C514.438 555.235 513.386 553.348 512.733 551.311C511.448 547.299 511.789 542.942 513.682 539.178C515.574 535.414 518.868 532.542 522.855 531.18C526.842 529.818 531.204 530.074 535.004 531.894C538.804 533.713 541.739 536.951 543.178 540.911ZM761.022 190.867C761.013 195.14 759.307 199.234 756.28 202.249C753.252 205.264 749.151 206.953 744.878 206.945C740.605 206.936 736.51 205.23 733.495 202.202C730.48 199.174 728.791 195.073 728.8 190.8C728.809 186.527 730.515 182.433 733.542 179.418C736.57 176.402 740.671 174.714 744.944 174.722C749.217 174.731 753.312 176.437 756.327 179.465C759.342 182.492 761.031 186.594 761.022 190.867ZM794.444 206.978C794.443 209.094 794.025 211.188 793.214 213.143C792.403 215.097 791.215 216.872 789.718 218.367C788.221 219.862 786.444 221.047 784.488 221.856C782.533 222.664 780.438 223.079 778.322 223.078C776.206 223.076 774.112 222.658 772.158 221.847C770.203 221.036 768.428 219.848 766.933 218.351C765.438 216.854 764.253 215.077 763.444 213.122C762.636 211.167 762.221 209.071 762.222 206.956C762.225 202.683 763.925 198.586 766.949 195.567C769.972 192.547 774.071 190.853 778.344 190.856C782.617 190.859 786.714 192.559 789.733 195.582C792.753 198.606 794.447 202.705 794.444 206.978ZM786.755 245.111C786.754 247.227 786.336 249.322 785.525 251.276C784.714 253.23 783.526 255.005 782.029 256.5C780.532 257.995 778.755 259.181 776.8 259.989C774.844 260.797 772.749 261.213 770.633 261.211C768.518 261.21 766.423 260.792 764.469 259.981C762.515 259.17 760.739 257.982 759.244 256.485C757.749 254.987 756.564 253.211 755.755 251.255C754.947 249.3 754.532 247.205 754.533 245.089C754.536 240.816 756.237 236.719 759.26 233.7C762.284 230.681 766.383 228.986 770.656 228.989C774.928 228.992 779.025 230.692 782.045 233.716C785.064 236.739 786.758 240.838 786.755 245.111ZM344.711 35.9557C344.711 40.2257 343.015 44.3208 339.996 47.3401C336.976 50.3594 332.881 52.0557 328.611 52.0557C324.341 52.0557 320.246 50.3594 317.227 47.3401C314.207 44.3208 312.511 40.2257 312.511 35.9557C312.511 31.6857 314.207 27.5906 317.227 24.5713C320.246 21.5519 324.341 19.8557 328.611 19.8557C332.881 19.8557 336.976 21.5519 339.996 24.5713C343.015 27.5906 344.711 31.6857 344.711 35.9557ZM379.622 25.5335C379.622 29.8005 377.927 33.8928 374.91 36.91C371.893 39.9273 367.8 41.6224 363.533 41.6224C359.266 41.6224 355.174 39.9273 352.157 36.91C349.14 33.8928 347.444 29.8005 347.444 25.5335C347.444 21.2664 349.14 17.1742 352.157 14.1569C355.174 11.1397 359.266 9.44458 363.533 9.44458C367.8 9.44458 371.893 11.1397 374.91 14.1569C377.927 17.1742 379.622 21.2664 379.622 25.5335Z" fill="#CFDE91"/>
<path d="M4.62221 125.6C10.4889 102.2 108.111 20.6445 196.667 35.9556C241.644 43.7556 262.044 110.489 310.044 112.133C560.911 120.778 804.978 359.645 728.867 587.489C695.4 687.645 604.022 783 385.289 698.622C341.822 681.867 297.067 654.511 211.422 671.356C148.044 683.867 141.444 741.556 149.133 771.289C155.178 794.578 145.556 806.444 133.556 788.156C106.311 746.667 104.289 691.556 147.844 655.822C234.778 584.467 353.356 627.289 439.778 654.511C583.8 699.933 660.156 573.378 580.8 425.289C502.956 279.956 362.756 240.311 269.578 229.378C243.622 226.333 188.711 274.889 150.311 268.089C69.8444 253.8 0.399987 142.578 4.62221 125.6Z" fill="#CFDE91"/>
<path d="M4.62231 125.6C10.489 102.2 108.111 20.6445 196.667 35.9556C241.645 43.7556 262.045 110.489 310.045 112.133C560.911 120.778 804.978 359.645 728.867 587.489C695.4 687.645 604.022 783 385.289 698.622C341.822 681.867 297.067 654.511 211.422 671.356C148.045 683.867 141.445 741.556 149.133 771.289C152.111 782.756 151.289 791.422 148.267 795.133C127.778 766.667 118 698.711 162.956 664.822C241.6 605.556 353.356 661.911 458.533 687.978C686.333 744.444 729.267 510.311 634.245 357.422C519 171.911 155.556 127.778 4.62231 125.6Z" fill="#CFDE91"/>
<path d="M155.555 88.8888C167.828 88.8888 177.778 78.9396 177.778 66.6666C177.778 54.3936 167.828 44.4443 155.555 44.4443C143.282 44.4443 133.333 54.3936 133.333 66.6666C133.333 78.9396 143.282 88.8888 155.555 88.8888Z" fill="#292F33"/>
<path d="M133.333 244.444C145.606 244.444 155.556 234.495 155.556 222.222C155.556 209.949 145.606 200 133.333 200C121.06 200 111.111 209.949 111.111 222.222C111.111 234.495 121.06 244.444 133.333 244.444Z" fill="#292F33"/>
</svg>
