<svg width="601" height="601" viewBox="0 0 601 601" fill="none" xmlns="http://www.w3.org/2000/svg">
<path d="M401 147V37.5C401 27.5544 397.049 18.0161 390.016 10.9835C382.984 3.95088 373.446 0 363.5 0C353.554 0 344.016 3.95088 336.984 10.9835C329.951 18.0161 326 27.5544 326 37.5V237.5C326 258.2 342.8 275 363.5 275H563.5C573.446 275 582.984 271.049 590.016 264.017C597.049 256.984 601 247.446 601 237.5C601 227.554 597.049 218.016 590.016 210.983C582.984 203.951 573.446 200 563.5 200H454L590 64C596.624 56.8913 600.23 47.4889 600.059 37.7739C599.887 28.0588 595.952 18.7896 589.081 11.9189C582.21 5.04826 572.941 1.11266 563.226 0.941253C553.511 0.769842 544.109 4.376 537 11L401 147ZM38.5 325C28.5544 325 19.0161 328.951 11.9835 335.984C4.95086 343.016 0.999987 352.554 0.999987 362.5C0.999987 372.446 4.95086 381.984 11.9835 389.016C19.0161 396.049 28.5544 400 38.5 400H148L12 536C8.31565 539.433 5.36054 543.573 3.31094 548.173C1.26134 552.773 0.159251 557.739 0.0704113 562.774C-0.0184279 567.809 0.907798 572.81 2.79385 577.48C4.6799 582.149 7.48713 586.391 11.0481 589.952C14.609 593.513 18.8507 596.32 23.5201 598.206C28.1895 600.092 33.191 601.018 38.2261 600.93C43.2613 600.841 48.2269 599.739 52.8269 597.689C57.4269 595.639 61.5669 592.684 65 589L201 453V562.5C201 572.446 204.951 581.984 211.983 589.016C219.016 596.049 228.554 600 238.5 600C248.446 600 257.984 596.049 265.016 589.016C272.049 581.984 276 572.446 276 562.5V362.5C276 352.554 272.049 343.016 265.016 335.984C257.984 328.951 248.446 325 238.5 325H38.5Z" fill="#A4B465"/>
</svg>
