<svg width="800" height="800" viewBox="0 0 800 800" fill="none" xmlns="http://www.w3.org/2000/svg">
<path d="M112.5 0C82.6631 0 54.0483 11.8526 32.9505 32.9505C11.8526 54.0483 0 82.6631 0 112.5L0 487.5C0 517.337 11.8526 545.952 32.9505 567.05C54.0483 588.147 82.6631 600 112.5 600H125C134.946 600 144.484 596.049 151.517 589.016C158.549 581.984 162.5 572.446 162.5 562.5C162.5 552.554 158.549 543.016 151.517 535.984C144.484 528.951 134.946 525 125 525H112.5C102.554 525 93.0161 521.049 85.9835 514.016C78.9509 506.984 75 497.446 75 487.5V112.5C75 102.554 78.9509 93.0161 85.9835 85.9835C93.0161 78.9509 102.554 75 112.5 75H487.5C497.446 75 506.984 78.9509 514.016 85.9835C521.049 93.0161 525 102.554 525 112.5V125C525 134.946 528.951 144.484 535.984 151.517C543.016 158.549 552.554 162.5 562.5 162.5C572.446 162.5 581.984 158.549 589.016 151.517C596.049 144.484 600 134.946 600 125V112.5C600 82.6631 588.147 54.0483 567.05 32.9505C545.952 11.8526 517.337 0 487.5 0L112.5 0Z" fill="#A4B465"/>
<path fill-rule="evenodd" clip-rule="evenodd" d="M312.5 200C282.663 200 254.048 211.853 232.95 232.95C211.853 254.048 200 282.663 200 312.5V687.5C200 717.337 211.853 745.952 232.95 767.05C254.048 788.147 282.663 800 312.5 800H687.5C717.337 800 745.952 788.147 767.05 767.05C788.147 745.952 800 717.337 800 687.5V312.5C800 282.663 788.147 254.048 767.05 232.95C745.952 211.853 717.337 200 687.5 200H312.5ZM275 312.5C275 302.554 278.951 293.016 285.983 285.983C293.016 278.951 302.554 275 312.5 275H687.5C697.446 275 706.984 278.951 714.016 285.983C721.049 293.016 725 302.554 725 312.5V687.5C725 697.446 721.049 706.984 714.016 714.016C706.984 721.049 697.446 725 687.5 725H312.5C302.554 725 293.016 721.049 285.983 714.016C278.951 706.984 275 697.446 275 687.5V312.5Z" fill="#A4B465"/>
</svg>
