<svg width="800" height="800" viewBox="0 0 800 800" fill="none" xmlns="http://www.w3.org/2000/svg">
<path d="M387.75 234.75C391.396 238.065 394.354 242.065 396.453 246.523C398.552 250.982 399.752 255.81 399.984 260.732C400.216 265.654 399.476 270.574 397.806 275.21C396.136 279.846 393.568 284.107 390.25 287.75L322.25 362.5H562.5C572.446 362.5 581.984 366.451 589.016 373.484C596.049 380.516 600 390.054 600 400C600 409.946 596.049 419.484 589.016 426.517C581.984 433.549 572.446 437.5 562.5 437.5H322.25L390.25 512.25C396.947 519.61 400.445 529.328 399.977 539.268C399.508 549.207 395.11 558.553 387.75 565.25C380.39 571.947 370.672 575.446 360.732 574.977C350.793 574.508 341.447 570.11 334.75 562.75L209.8 425.25C203.524 418.394 200.03 409.445 200 400.15V399.95C200 390.2 203.75 381.35 209.85 374.7L334.75 237.3C338.065 233.654 342.065 230.696 346.523 228.597C350.982 226.498 355.81 225.298 360.732 225.066C365.654 224.834 370.574 225.574 375.21 227.244C379.846 228.914 384.107 231.432 387.75 234.75Z" fill="#A4B465"/>
<path fill-rule="evenodd" clip-rule="evenodd" d="M0 400C0 293.913 42.1427 192.172 117.157 117.157C192.172 42.1427 293.913 0 400 0C506.087 0 607.828 42.1427 682.843 117.157C757.857 192.172 800 293.913 800 400C800 506.087 757.857 607.828 682.843 682.843C607.828 757.857 506.087 800 400 800C293.913 800 192.172 757.857 117.157 682.843C42.1427 607.828 0 506.087 0 400ZM400 75C313.805 75 231.14 109.241 170.19 170.19C109.241 231.14 75 313.805 75 400C75 486.195 109.241 568.86 170.19 629.81C231.14 690.759 313.805 725 400 725C486.195 725 568.86 690.759 629.81 629.81C690.759 568.86 725 486.195 725 400C725 313.805 690.759 231.14 629.81 170.19C568.86 109.241 486.195 75 400 75Z" fill="#A4B465"/>
</svg>
