<svg width="700" height="700" viewBox="0 0 700 700" fill="none" xmlns="http://www.w3.org/2000/svg">
<path d="M462.5 0C452.554 1.48201e-07 443.016 3.95088 435.984 10.9835C428.951 18.0161 425 27.5544 425 37.5C425 47.4456 428.951 56.9839 435.984 64.0165C443.016 71.0491 452.554 75 462.5 75H572L423.5 223.5C416.876 230.609 413.27 240.011 413.441 249.726C413.613 259.441 417.548 268.71 424.419 275.581C431.29 282.452 440.559 286.387 450.274 286.559C459.989 286.73 469.391 283.124 476.5 276.5L625 128V237.5C625 247.446 628.951 256.984 635.984 264.017C643.016 271.049 652.554 275 662.5 275C672.446 275 681.984 271.049 689.016 264.017C696.049 256.984 700 247.446 700 237.5V37.5C700 27.5544 696.049 18.0161 689.016 10.9835C681.984 3.95088 672.446 0 662.5 0H462.5ZM75 462.5C75 452.554 71.0491 443.016 64.0165 435.984C56.9839 428.951 47.4456 425 37.5 425C27.5544 425 18.0161 428.951 10.9835 435.984C3.95088 443.016 1.48201e-07 452.554 0 462.5V662.5C0 683.2 16.8 700 37.5 700H237.5C247.446 700 256.984 696.049 264.017 689.016C271.049 681.984 275 672.446 275 662.5C275 652.554 271.049 643.016 264.017 635.984C256.984 628.951 247.446 625 237.5 625H128L276.5 476.5C280.184 473.067 283.139 468.927 285.189 464.327C287.239 459.727 288.341 454.761 288.43 449.726C288.518 444.691 287.592 439.69 285.706 435.02C283.82 430.351 281.013 426.109 277.452 422.548C273.891 418.987 269.649 416.18 264.98 414.294C260.31 412.408 255.309 411.482 250.274 411.57C245.239 411.659 240.273 412.761 235.673 414.811C231.073 416.861 226.933 419.816 223.5 423.5L75 572V462.5Z" fill="#A4B465"/>
</svg>
