<svg width="800" height="800" viewBox="0 0 800 800" fill="none" xmlns="http://www.w3.org/2000/svg">
<path d="M412.25 234.75C408.604 238.065 405.646 242.065 403.547 246.523C401.448 250.982 400.248 255.81 400.016 260.732C399.784 265.654 400.524 270.574 402.194 275.21C403.864 279.846 406.432 284.107 409.75 287.75L477.75 362.5H237.5C227.554 362.5 218.016 366.451 210.983 373.484C203.951 380.516 200 390.054 200 400C200 409.946 203.951 419.484 210.983 426.516C218.016 433.549 227.554 437.5 237.5 437.5H477.75L409.75 512.25C403.053 519.61 399.555 529.328 400.023 539.268C400.492 549.207 404.89 558.553 412.25 565.25C419.61 571.947 429.328 575.445 439.268 574.977C449.207 574.508 458.553 570.11 465.25 562.75L590.25 425.25C596.539 418.344 600.025 409.34 600.025 400C600.025 390.66 596.539 381.656 590.25 374.75L465.25 237.25C461.935 233.604 457.935 230.646 453.477 228.547C449.018 226.448 444.19 225.248 439.268 225.016C434.346 224.784 429.426 225.524 424.79 227.194C420.154 228.864 415.893 231.432 412.25 234.75Z" fill="#A4B465"/>
<path fill-rule="evenodd" clip-rule="evenodd" d="M0 400C0 293.913 42.1427 192.172 117.157 117.157C192.172 42.1427 293.913 0 400 0C506.087 0 607.828 42.1427 682.843 117.157C757.857 192.172 800 293.913 800 400C800 506.087 757.857 607.828 682.843 682.843C607.828 757.857 506.087 800 400 800C293.913 800 192.172 757.857 117.157 682.843C42.1427 607.828 0 506.087 0 400ZM400 75C313.805 75 231.14 109.241 170.19 170.19C109.241 231.14 75 313.805 75 400C75 486.195 109.241 568.86 170.19 629.81C231.14 690.759 313.805 725 400 725C486.195 725 568.86 690.759 629.81 629.81C690.759 568.86 725 486.195 725 400C725 313.805 690.759 231.14 629.81 170.19C568.86 109.241 486.195 75 400 75Z" fill="#A4B465"/>
</svg>
